<svg width="48" height="48" viewBox="0 0 48 48" fill="none" xmlns="http://www.w3.org/2000/svg">
<g clip-path="url(#clip0)">
<rect width="48" height="48" rx="24" fill="#DDEEFF"/>
<path fill-rule="evenodd" clip-rule="evenodd" d="M24 -6C7.44 -6 -6 7.44 -6 24C-6 40.56 7.44 54 24 54C40.56 54 54 40.56 54 24C54 7.44 40.56 -6 24 -6ZM0 24C0 22.17 0.24 20.37 0.63 18.66L14.97 33V36C14.97 39.3 17.67 42 20.97 42V47.79C9.18 46.29 0 36.21 0 24ZM35.97 36C38.67 36 40.89 37.77 41.67 40.2C45.57 35.94 48 30.24 48 24C48 13.95 41.76 5.31 32.97 1.77V3C32.97 6.3 30.27 9 26.97 9H20.97V15C20.97 16.65 19.62 18 17.97 18H11.97V24H29.97C31.62 24 32.97 25.35 32.97 27V36H35.97Z" fill="#BBDDFF"/>
<rect x="18.5" y="22.5" width="11" height="35" fill="#66CCFF" stroke="#DDEEFF" stroke-width="3"/>
<circle cx="24" cy="24" r="5.5" fill="#0066FF" stroke="#DDEEFF" stroke-width="3"/>
<path d="M31 27.5H29.5V29V61V62.5H31H37H38.5V61V29V27.5H37H31Z" fill="#66CCFF" stroke="#DDEEFF" stroke-width="3"/>
<circle cx="34" cy="29" r="4.5" fill="#66CCFF" stroke="#DDEEFF" stroke-width="3"/>
<path d="M11 27.5H9.5V29V61V62.5H11H17H18.5V61V29V27.5H17H11Z" fill="#66CCFF" stroke="#DDEEFF" stroke-width="3"/>
<circle cx="14" cy="29" r="4.5" fill="#66CCFF" stroke="#DDEEFF" stroke-width="3"/>
</g>
<defs>
<clipPath id="clip0">
<rect width="48" height="48" rx="24" fill="white"/>
</clipPath>
</defs>
</svg>
